<svg xmlns="http://www.w3.org/2000/svg" width="1920" height="1080" viewBox="0 0 1920 1080" version="1.1">
	<path d="M 934 16.688 C 710.774 20.877, 500.174 80.881, 346.438 184.096 C 223.701 266.500, 146.165 372.400, 127.588 483.008 C 123.484 507.438, 122.708 519.033, 123.279 547.349 C 123.822 574.337, 125.216 587.209, 130.009 609.500 C 146.836 687.764, 191.469 761.873, 261.694 828.156 C 380.039 939.858, 563.259 1019.610, 770 1049.414 C 1085.721 1094.927, 1410.746 1024.221, 1614.149 865.776 C 1650.725 837.285, 1688.740 799.519, 1714.584 766 C 1760.109 706.953, 1787.020 643.308, 1795.132 575.500 C 1796.845 561.181, 1796.867 518.811, 1795.169 504.500 C 1791.426 472.947, 1783.981 443.129, 1772.699 414.500 C 1700.232 230.614, 1470.142 83.714, 1177.500 34.497 C 1099.527 21.384, 1014.641 15.175, 934 16.688 M 836 141.093 C 734.385 152.389, 658.033 171.422, 602.304 199.348 C 559.401 220.846, 536.876 246.929, 540.793 270.571 C 546.206 303.236, 594.432 335.500, 672.041 358.379 C 696.638 365.629, 746.195 377.139, 747.443 375.890 C 747.663 375.671, 749.246 368.518, 750.963 359.996 C 768.115 274.817, 800.181 198.107, 838.595 150.354 C 844.081 143.534, 846.339 140.044, 845.212 140.130 C 844.270 140.201, 840.125 140.635, 836 141.093 M 1077.718 146.065 C 1103.514 178.310, 1123.955 215.783, 1141.384 262.776 C 1151.671 290.510, 1162.366 328.997, 1168.542 360.500 C 1170.052 368.200, 1171.634 374.889, 1172.059 375.365 C 1172.486 375.844, 1178.788 375.021, 1186.165 373.522 C 1304.198 349.547, 1379.173 307.426, 1378.967 265.205 C 1378.908 253.023, 1373.264 241.604, 1361.395 229.654 C 1319.846 187.817, 1212.582 154.091, 1078.218 140.616 L 1072.935 140.087 1077.718 146.065 M 950.618 255.049 C 938.875 257.998, 922.260 271.990, 912.084 287.500 C 905.628 297.340, 894.430 320.139, 889.577 333.324 C 882.947 351.340, 872.591 390.035, 874.051 391.336 C 875.270 392.420, 925.765 394.006, 959 394.004 C 997.503 394.001, 1043.857 392.400, 1045.326 391.022 C 1046.402 390.013, 1040.183 364.866, 1034.471 347.127 C 1018.714 298.190, 997.190 266.162, 973.864 256.940 C 967.745 254.521, 956.396 253.598, 950.618 255.049 M 1520.631 333.638 C 1519.083 337.412, 1515.367 344.664, 1512.374 349.753 C 1468.157 424.926, 1357.275 485.410, 1204 517.964 L 1186.500 521.681 1186.302 549.591 C 1185.788 622.219, 1179.032 685.909, 1165.363 747 C 1148.018 824.517, 1118.936 892.714, 1085.029 935.383 C 1081.257 940.129, 1079.541 943, 1080.476 943 C 1084.888 943, 1124.594 937.423, 1145 933.938 C 1291.229 908.960, 1417.843 855.742, 1507.500 781.573 C 1523.244 768.549, 1549.755 742.427, 1561.871 728 C 1601.209 681.160, 1623.464 634.295, 1631.679 581 C 1633.887 566.672, 1634.150 530.065, 1632.142 516.500 C 1626.017 475.120, 1611.852 438.336, 1588.224 402.449 C 1574.592 381.743, 1560.475 364.499, 1540.489 344.138 L 1523.447 326.777 1520.631 333.638 M 381.661 341.250 C 326.360 396.569, 295.819 453.860, 287.437 518 C 285.140 535.576, 285.873 570.620, 288.891 587.500 C 304.550 675.071, 363.588 753.774, 462 818.268 C 557.062 880.566, 681.652 923.072, 821.822 941.028 C 830.799 942.178, 838.541 942.980, 839.027 942.809 C 839.513 942.639, 837.625 939.575, 834.830 936 C 785.105 872.383, 750.249 767.771, 738.037 645.500 C 734.900 614.088, 733.990 597.198, 733.320 557.918 L 732.696 521.336 720.598 519.024 C 703.378 515.733, 664.684 506.074, 643 499.653 C 570.960 478.323, 508.173 447.911, 463.776 412.843 C 449.808 401.809, 427.953 379.700, 418.728 367.269 C 410.876 356.690, 401.644 341.034, 398.374 332.754 C 397.343 330.143, 396.141 328.006, 395.703 328.004 C 395.265 328.002, 388.946 333.962, 381.661 341.250 M 860.410 548.146 C 860.717 553.841, 861.219 563.900, 861.525 570.500 C 864.223 628.722, 876.328 689.830, 893.546 732.149 C 910.501 773.823, 933.149 800.487, 954.425 803.823 C 975.474 807.124, 996.836 789.993, 1015.381 754.939 C 1034.934 717.981, 1049.091 664.321, 1055.466 603 C 1057.318 585.186, 1058.989 558.510, 1058.995 546.656 L 1059 537.812 1054.250 538.393 C 1020.482 542.524, 898.410 542.517, 864.676 538.383 L 859.852 537.792 860.410 548.146" stroke="none" fill="#FFFFFF" fill-rule="evenodd"/>
</svg>